<?xml version="1.0" encoding="utf-8" ?>
<svg baseProfile="full" height="100%" version="1.1" viewBox="0,0,1000,120" width="100%" xmlns="http://www.w3.org/2000/svg" xmlns:ev="http://www.w3.org/2001/xml-events" xmlns:xlink="http://www.w3.org/1999/xlink"><defs /><rect fill="white" height="120" width="1000" x="0" y="0" /><path d="M0,0 M427.30718994140625,51.3899040222168 L427.7043762207031,51.01197814941406 L428.4903564453125,50.309715270996094 L429.6466064453125,49.316253662109375 L430.9910888671875,48.210723876953125 L432.33123779296875,47.14824295043945 L433.46826171875,46.259552001953125 L434.3240661621094,45.60947799682617 L434.8988342285156,45.19612121582031 L435.227294921875,45.0 L435.3491516113281,45.05546569824219 L435.2791442871094,45.44695281982422 L435.00970458984375,46.272544860839844 L434.59600830078125,47.58121109008789 L434.09747314453125,49.32097244262695 L433.5861511230469,51.3939323425293 L433.1113586425781,53.69512939453125 L432.700927734375,56.12872314453125 L432.36053466796875,58.61381149291992 L432.10028076171875,61.06712341308594 L431.8821105957031,63.398475646972656 L431.6732482910156,65.54821014404297 L431.42279052734375,67.44971466064453 L431.1175231933594,69.04020690917969 L430.7703857421875,70.2711181640625 L430.3963928222656,71.11201477050781 L429.982421875,71.55608367919922 L429.5111389160156,71.62357330322266 L428.9631652832031,71.2969970703125 L428.3792419433594,70.55265808105469 L427.8586120605469,69.39968872070312 L427.5121154785156,67.9008560180664 L427.4342956542969,66.16967010498047 L427.6860046386719,64.3370132446289 L428.2901611328125,62.492088317871094 L429.2218322753906,60.68389129638672 L430.466552734375,58.95314407348633 L431.9871520996094,57.34755325317383 L433.7325744628906,55.91838455200195 L435.647705078125,54.71826171875 L437.6667785644531,53.79905319213867 L439.655029296875,53.19266128540039 L441.48028564453125,52.885963439941406 L443.0182189941406,52.81630325317383 L444.1856384277344,52.87986373901367 L444.9690246582031,52.96626281738281 L445.4214172363281,53.01190948486328 L445.5963439941406,53.00999450683594 L445.5192565917969,52.96999740600586 L445.19439697265625,52.9286003112793 L444.58984375,52.951904296875 L443.6698913574219,53.13755798339844 L442.4198303222656,53.622528076171875 L440.8847961425781,54.55366897583008 L439.15850830078125,56.00192642211914 L437.4126281738281,57.91722106933594 L435.8465270996094,60.09977722167969 L434.6509704589844,62.25734329223633 L433.93267822265625,64.09236145019531 L433.74603271484375,65.39534759521484 L434.07904052734375,66.05391693115234 L434.8655090332031,66.02377319335938 L436.0137939453125,65.29735565185547 L437.4288330078125,63.93229293823242 L438.9884948730469,62.07490539550781 L440.58892822265625,59.97993850708008 L442.1209716796875,57.94579315185547 L443.4608459472656,56.21364974975586 L444.500732421875,54.93931579589844 L445.1713562011719,54.221981048583984 L445.451904296875,54.14589309692383 L445.39239501953125,54.79404067993164 L445.05792236328125,56.18730163574219 L444.5563659667969,58.184146881103516 L444.017333984375,60.495235443115234 L443.5551452636719,62.764678955078125 L443.2638244628906,64.67647552490234 L443.1835021972656,66.05365753173828 L443.2645263671875,66.88143920898438 L443.4031066894531,67.26703643798828 L443.51983642578125,67.38123321533203 M448.8252258300781,54.53938674926758 L448.9420166015625,54.61963653564453 L449.0891418457031,54.94056701660156 L449.1962890625,55.673248291015625 L449.15362548828125,56.9097785949707 L448.9383239746094,58.61613464355469 L448.5608825683594,60.639217376708984 L448.0750427246094,62.710853576660156 L447.5725402832031,64.54515075683594 L447.1446533203125,65.95770263671875 L446.824951171875,66.85454559326172 L446.6540832519531,67.23466491699219 L446.6245422363281,67.08810424804688 L446.75286865234375,66.32867431640625 L447.1056213378906,64.8802490234375 L447.7623291015625,62.82965850830078 L448.74609375,60.439674377441406 L450.0438232421875,58.09303665161133 L451.53729248046875,56.11808395385742 L453.0679931640625,54.70246124267578 L454.4654235839844,53.896141052246094 L455.5946960449219,53.711769104003906 L456.3544006347656,54.16790771484375 L456.7234191894531,55.27295684814453 L456.7244873046875,56.953163146972656 L456.4295654296875,59.03090286254883 L455.9557800292969,61.20419692993164 L455.44830322265625,63.15705871582031 L455.0266418457031,64.669189453125 L454.775390625,65.64822387695312 L454.7137145996094,66.06505584716797 L454.84051513671875,65.89396667480469 L455.1885681152344,65.05937194824219 L455.8114929199219,63.53689193725586 L456.75128173828125,61.48609161376953 L457.9939880371094,59.25424575805664 L459.42974853515625,57.21925354003906 L460.90386962890625,55.65708923339844 L462.2582702636719,54.65769577026367 L463.36431884765625,54.20006561279297 L464.1427001953125,54.26374816894531 L464.5557556152344,54.8709602355957 L464.6191711425781,56.034156799316406 L464.3964538574219,57.67918014526367 L463.98223876953125,59.61988830566406 L463.5003967285156,61.61094665527344 L463.0688781738281,63.40969467163086 L462.755859375,64.86579895019531 L462.6297607421875,65.85913848876953 L462.69775390625,66.33704376220703 L462.9248962402344,66.31829071044922 L463.18658447265625,66.04289245605469 L463.39013671875,65.73137664794922 M466.7822265625,62.55811309814453 L467.2723083496094,62.3016242980957 L468.118408203125,61.748390197753906 L469.2422180175781,60.85820007324219 L470.4260559082031,59.680423736572266 L471.5432434082031,58.29888153076172 L472.49615478515625,56.83681869506836 L473.23919677734375,55.40653610229492 L473.7239990234375,54.12266540527344 L473.9145812988281,53.07526397705078 L473.7771911621094,52.32469177246094 L473.2830505371094,51.9434814453125 L472.4220886230469,52.013214111328125 L471.2552795410156,52.60784149169922 L469.8916015625,53.767799377441406 L468.49395751953125,55.42335510253906 L467.2524719238281,57.41398620605469 L466.33099365234375,59.52210235595703 L465.8118896484375,61.520042419433594 L465.7322692871094,63.22972106933594 L466.059326171875,64.54889678955078 L466.72906494140625,65.4183578491211 L467.6748046875,65.81918334960938 L468.8497009277344,65.75308227539062 L470.185302734375,65.2291030883789 L471.6211242675781,64.2821044921875 L473.0885009765625,63.00238800048828 L474.52337646484375,61.508121490478516 L475.87548828125,59.93761444091797 L477.1480712890625,58.43740463256836 L478.34197998046875,57.11760711669922 L479.4734191894531,56.05537033081055 L480.5430603027344,55.31342697143555 L481.54443359375,54.92675018310547 L482.45330810546875,54.92026138305664 L483.25128173828125,55.309696197509766 L483.8741455078125,56.068904876708984 L484.2774353027344,57.15422439575195 L484.4096374511719,58.4815788269043 L484.2529602050781,59.944881439208984 L483.81951904296875,61.44057083129883 L483.1490478515625,62.87394714355469 L482.2567138671875,64.15131378173828 L481.1932678222656,65.21422576904297 L480.013427734375,65.9951171875 L478.8328857421875,66.47039031982422 L477.7895202636719,66.67121887207031 L477.0581970214844,66.69888305664062 L476.6681213378906,66.65509796142578 M506.65350341796875,49.034873962402344 L506.64471435546875,48.80265426635742 L506.6229248046875,48.456485748291016 L506.5747375488281,48.06161117553711 L506.4679870605469,47.71027374267578 L506.2513427734375,47.404014587402344 L505.87701416015625,47.128875732421875 L505.31787109375,46.87644577026367 L504.5666198730469,46.65011978149414 L503.6383056640625,46.465232849121094 L502.5391845703125,46.34013366699219 L501.27813720703125,46.31559753417969 L499.8761901855469,46.4373893737793 L498.38323974609375,46.76629638671875 L496.8679504394531,47.35279083251953 L495.38812255859375,48.23158264160156 L493.9873962402344,49.42597198486328 L492.7001037597656,50.94906997680664 L491.576416015625,52.77298355102539 L490.67425537109375,54.82292938232422 L490.06951904296875,56.99690246582031 L489.80169677734375,59.16050720214844 L489.9019470214844,61.196197509765625 L490.3643493652344,63.009376525878906 L491.1677551269531,64.51634216308594 L492.2823486328125,65.66010284423828 L493.6730651855469,66.41121673583984 L495.2690124511719,66.75981140136719 L497.07220458984375,66.66971588134766 L499.0179748535156,66.15913391113281 L501.0003967285156,65.30091857910156 L502.6075134277344,64.4408950805664 L503.6234130859375,63.82033157348633 M525.2325439453125,48.5029296875 L525.0010986328125,49.211700439453125 L524.6172485351562,50.52304458618164 L524.1209716796875,52.434051513671875 L523.6038208007812,54.7321891784668 L523.1026611328125,57.28470993041992 L522.6429443359375,59.920833587646484 L522.2349853515625,62.45184326171875 L521.8978881835938,64.64720153808594 L521.6470336914062,66.33963775634766 L521.4788818359375,67.46266174316406 L521.3818969726562,68.05249786376953 L521.348388671875,68.18778228759766 L521.3670043945312,67.88785552978516 L521.4343872070312,67.06159210205078 L521.5678100585938,65.61860656738281 L521.7720947265625,63.58375549316406 L522.0552368164062,61.10707092285156 L522.41845703125,58.411190032958984 L522.846923828125,55.71372985839844 L523.3475341796875,53.1629638671875 L523.93701171875,50.86888122558594 L524.6331787109375,48.933799743652344 L525.4532470703125,47.43167495727539 L526.3914794921875,46.394222259521484 L527.4161987304688,45.812896728515625 L528.4979858398438,45.648895263671875 L529.5867919921875,45.85935974121094 L530.6005249023438,46.405548095703125 L531.4229736328125,47.240570068359375 L531.9315795898438,48.3042106628418 L532.0188598632812,49.51689147949219 L531.6367797851562,50.79344177246094 L530.7989501953125,52.06264114379883 L529.5750122070312,53.26959228515625 L528.0831909179688,54.3791389465332 L526.4960327148438,55.32941436767578 L525.0161743164062,56.05000305175781 L523.8275146484375,56.50450897216797 L523.02587890625,56.709468841552734 L522.654052734375,56.718875885009766 L522.6589965820312,56.63441467285156 L522.9421997070312,56.503780364990234 L523.2969970703125,56.38294219970703 L523.5787353515625,56.30019760131836 M533.0177001953125,53.04120635986328 L532.9044189453125,53.27109909057617 L532.6875610351562,53.81850051879883 L532.3633422851562,54.767513275146484 L531.9486083984375,56.089599609375 L531.4601440429688,57.709922790527344 L530.8880615234375,59.52812576293945 L530.2708740234375,61.436527252197266 L529.6762084960938,63.2818603515625 L529.18408203125,64.896484375 L528.84423828125,66.13916015625 L528.6767578125,66.92100524902344 L528.6471557617188,67.18794250488281 L528.7443237304688,66.91584777832031 L528.9830322265625,66.05094909667969 L529.4031372070312,64.61469268798828 L530.0282592773438,62.77691650390625 L530.8602905273438,60.78422546386719 L531.8712158203125,58.87018585205078 L533.0153198242188,57.206390380859375 L534.2233276367188,55.843345642089844 L535.4363403320312,54.789161682128906 L536.58251953125,54.05198669433594 L537.6189575195312,53.62668991088867 L538.5315551757812,53.493228912353516 L539.3016357421875,53.60167694091797 L539.9060668945312,53.87259292602539 L540.3079833984375,54.159271240234375 L540.5116577148438,54.36479187011719 M538.0455322265625,60.23226547241211 L538.4072875976562,60.23184585571289 L539.09423828125,60.12297058105469 L540.0901489257812,59.81504821777344 L541.2705078125,59.249778747558594 L542.5352172851562,58.45368576049805 L543.765380859375,57.50110626220703 L544.872314453125,56.487945556640625 L545.7711181640625,55.500221252441406 L546.3881225585938,54.602294921875 L546.693603515625,53.835166931152344 L546.6685791015625,53.22149658203125 L546.3103637695312,52.798484802246094 L545.6329956054688,52.627593994140625 L544.648681640625,52.79463577270508 L543.3988037109375,53.383644104003906 L541.9833374023438,54.44432830810547 L540.5256958007812,55.944793701171875 L539.1781616210938,57.771934509277344 L538.09521484375,59.75083923339844 L537.4124145507812,61.68519973754883 L537.2185668945312,63.393795013427734 L537.5484008789062,64.74200439453125 L538.3607177734375,65.65145874023438 L539.5715942382812,66.07808685302734 L541.0703125,66.02791595458984 L542.7621459960938,65.54779052734375 L544.5394897460938,64.70206451416016 L546.2947387695312,63.55514144897461 L547.94091796875,62.1899299621582 L549.4301147460938,60.67837142944336 L550.748779296875,59.123008728027344 L551.9069213867188,57.631500244140625 L552.9017333984375,56.30925369262695 L553.7094116210938,55.22806167602539 L554.3174438476562,54.42412185668945 L554.7261962890625,53.8860969543457 L554.9673461914062,53.57570266723633 L555.0755004882812,53.428470611572266 L555.1046752929688,53.412479400634766 L555.080810546875,53.50807189941406 L555.0299072265625,53.70361328125 L554.9324951171875,53.99478530883789 L554.76220703125,54.361846923828125 L554.47314453125,54.79084777832031 L554.067626953125,55.303253173828125 L553.5619506835938,55.9284782409668 L553.027099609375,56.68041229248047 L552.524169921875,57.55271530151367 L552.1178588867188,58.50724792480469 L551.84619140625,59.505455017089844 L551.7433471679688,60.51016616821289 L551.8164672851562,61.50366973876953 L552.0550537109375,62.46016311645508 L552.4019165039062,63.3580207824707 L552.7762451171875,64.18132019042969 L553.0791015625,64.9253158569336 L553.2203979492188,65.58618927001953 L553.1353149414062,66.17549896240234 L552.782470703125,66.69300842285156 L552.1429443359375,67.13163757324219 L551.2366943359375,67.46586608886719 L550.1106567382812,67.65528869628906 L548.8560180664062,67.6714096069336 L547.5927124023438,67.47772216796875 L546.4520874023438,67.08859252929688 L545.539794921875,66.56675720214844 L544.9496459960938,66.08909606933594 L544.65673828125,65.76483917236328 M560.8690795898438,47.29356384277344 L560.8212280273438,47.43989181518555 L560.7324829101562,47.83950424194336 L560.58544921875,48.59553527832031 L560.3714599609375,49.75079345703125 L560.0584716796875,51.287986755371094 L559.6326904296875,53.17013931274414 L559.1026000976562,55.334842681884766 L558.5172119140625,57.70024871826172 L557.9283447265625,60.14995193481445 L557.4025268554688,62.54221725463867 L556.9838256835938,64.72655487060547 L556.7156372070312,66.5134506225586 L556.6227416992188,67.747314453125 L556.7021484375,68.36865997314453 L556.8533325195312,68.53034973144531 L556.9925537109375,68.45671081542969 M556.224853515625,56.839263916015625 L556.4163818359375,56.8205680847168 L556.930908203125,56.801265716552734 L557.8861083984375,56.778053283691406 L559.27685546875,56.73128128051758 L560.9779052734375,56.61614990234375 L562.844482421875,56.41643524169922 L564.6864624023438,56.13821792602539 L566.3465576171875,55.830474853515625 L567.7091674804688,55.54592514038086 L568.6651000976562,55.31916427612305 L569.1400146484375,55.18609619140625 L569.1387939453125,55.210025787353516 L568.656005859375,55.49104309082031 L567.72216796875,56.16244125366211 L566.4486694335938,57.312896728515625 L564.998046875,58.93561935424805 L563.6005249023438,60.90644836425781 L562.5093994140625,62.99684524536133 L561.8796997070312,64.94422149658203 L561.765625,66.53315734863281 L562.1339111328125,67.62361145019531 L562.89453125,68.17788696289062 L563.9326782226562,68.19847106933594 L565.1441040039062,67.6949691772461 L566.4052124023438,66.6941146850586 L567.5973510742188,65.2580795288086 L568.6068725585938,63.52157974243164 L569.3614501953125,61.69462203979492 L569.8261108398438,59.97829818725586 L570.0364990234375,58.530181884765625 L570.0554809570312,57.420021057128906 L569.9645385742188,56.636287689208984 L569.8463745117188,56.145450592041016 L569.7776489257812,55.89845657348633 L569.8226318359375,55.81452560424805 L570.0505981445312,55.80585479736328 L570.5084838867188,55.75776290893555 L571.2205810546875,55.5816535949707 L572.1661987304688,55.26373291015625 L573.2610473632812,54.85340881347656 L574.3733520507812,54.44468688964844 L575.3724975585938,54.1480598449707 L576.1522216796875,54.0709342956543 L576.66162109375,54.331031799316406 L576.8818969726562,55.049922943115234 L576.8016357421875,56.298545837402344 L576.4315185546875,58.067955017089844 L575.822509765625,60.20496368408203 L575.0738525390625,62.43871307373047 L574.3328857421875,64.45700073242188 L573.7291870117188,66.0314712524414 L573.3297729492188,67.05067443847656 L573.1459350585938,67.51057434082031 L573.1669311523438,67.40928649902344 L573.389892578125,66.71387481689453 L573.8685302734375,65.39781188964844 L574.6621704101562,63.575565338134766 L575.801025390625,61.49124526977539 L577.2462768554688,59.45075988769531 L578.903564453125,57.713565826416016 L580.6114501953125,56.440406799316406 L582.2199096679688,55.709083557128906 L583.597900390625,55.576595306396484 L584.6455688476562,56.06744384765625 L585.3028564453125,57.15861129760742 L585.5647583007812,58.75615310668945 L585.4873046875,60.69432067871094 L585.1967163085938,62.770843505859375 L584.8426513671875,64.79704284667969 L584.5623779296875,66.36092376708984 L584.4088134765625,67.30607604980469 " fill="none" stroke="black" stroke-linecap="round" stroke-width="1" /></svg>